<svg id="Capa_1" enable-background="new 0 0 512 512" height="512" viewBox="0 0 512 512" width="512" xmlns="http://www.w3.org/2000/svg"><path d="m257.277 500.745h-219.16l61.986-241.477c1.491-5.81 6.729-9.873 12.727-9.873h69.734c5.999 0 11.236 4.063 12.727 9.873l37.696 146.867z" fill="#dfdfdf"/><path d="m232.987 406.135-37.696-146.867c-1.491-5.81-6.729-9.873-12.727-9.873h-7.66l40.23 156.74 24.29 94.61h17.854z" fill="#cbcbcb"/><path d="m87.634 307.847h120.124l17.257 67.227h-154.404z" fill="#e49542"/><path d="m207.161 375.074h17.854l-.218-.846-17.039-66.381h-17.852z" fill="#df751c"/><path d="m379.737 419.275v81.47h-122.46l-24.29-94.61h133.61c7.257 0 13.14 5.883 13.14 13.14z" fill="#dfdfdf"/><path d="m362.994 406.135v94.61h16.743v-81.47c0-7.257-5.883-13.14-13.14-13.14z" fill="#cbcbcb"/><path d="m349.507 451.265h-75.99c-4.143 0-7.5-3.357-7.5-7.5s3.357-7.5 7.5-7.5h75.99c4.143 0 7.5 3.357 7.5 7.5s-3.358 7.5-7.5 7.5z" fill="#90d8f9"/><path d="m473.884 94.535c0-14.417-6.529-27.305-16.788-35.88-2.832-2.367-4.008-6.17-2.853-9.675 1.274-3.866 1.883-8.034 1.688-12.37-.783-17.391-14.787-31.683-32.16-32.789-10.062-.641-19.264 3.044-25.938 9.373-3.511 3.329-8.93 3.371-12.435.037-6.176-5.874-14.527-9.481-23.723-9.481-9.198 0-17.55 3.608-23.726 9.484-3.489 3.32-8.902 3.32-12.391 0-6.176-5.876-14.528-9.484-23.726-9.484s-17.55 3.608-23.726 9.484c-3.489 3.32-8.902 3.32-12.391 0-6.176-5.876-14.528-9.484-23.726-9.484-12.39 0-23.247 6.543-29.315 16.361-2.582 4.177-8.065 5.521-12.221 2.906-5.303-3.336-11.579-5.267-18.307-5.267-17.554 0-32.082 13.151-34.18 30.158-.472 3.827-3.286 6.947-7.067 7.703-15.81 3.161-27.65 17.117-27.65 33.775 0 3.162.426 6.225 1.224 9.134 1.099 4.005-.692 8.216-4.34 10.202-10.719 5.837-17.994 17.197-17.994 30.262 0 13.791 8.106 25.686 19.812 31.188 4.834 2.272 7.952 7.092 7.952 12.433v66.793h55.588v-52.383c0-9.29 9.093-15.647 17.934-12.79 4.525 1.462 9.353 2.253 14.366 2.253 14.668 0 27.752-6.76 36.321-17.33 2.937-3.624 8.237-4.376 11.999-1.619 5.697 4.176 12.723 6.643 20.328 6.643 9.919 0 18.855-4.195 25.138-10.906 3.36-3.589 9.138-3.675 12.58-.164 6.251 6.375 14.96 10.331 24.594 10.331 8.752 0 16.74-3.265 22.815-8.643 3.353-2.968 8.391-2.968 11.744 0 6.076 5.377 14.063 8.643 22.815 8.643 16.263 0 29.887-11.271 33.502-26.426.793-3.323 3.337-5.966 6.688-6.633 21.421-4.268 37.569-23.162 37.569-45.839z" fill="#afaab4"/><g fill="#8b818e"><path d="m454.249 48.965c1.402-4.26 1.996-8.886 1.597-13.7-1.319-15.92-13.715-29.035-29.544-31.19-5.692-.775-11.144-.124-16.093 1.599 12.95 4.552 22.449 16.704 23.089 30.937.127 2.829-.088 5.587-.606 8.236-1.225 6.258 1.001 12.63 5.432 17.216 8.126 8.409 13.127 19.855 13.127 32.473 0 20.985-13.828 38.73-32.868 44.643-5.849 1.816-10.486 6.171-12.637 11.905-3.58 9.544-11.273 17.076-20.921 20.439 3.541 1.23 7.339 1.911 11.299 1.911 16.263 0 29.887-11.271 33.502-26.426.793-3.323 3.337-5.966 6.688-6.633 21.423-4.267 37.571-23.161 37.571-45.838 0-14.417-6.529-27.305-16.788-35.88-2.837-2.372-4.004-6.181-2.848-9.692z"/><path d="m408.232 106.863c-3.899 0-7.191-3.017-7.474-6.967-.294-4.132 2.816-7.72 6.948-8.014 5.479-.391 9.771-5.004 9.771-10.503 0-3.672-1.869-7.023-5.001-8.964-3.521-2.182-4.605-6.805-2.424-10.326s6.806-4.607 10.326-2.424c7.575 4.695 12.099 12.813 12.099 21.714 0 13.333-10.412 24.519-23.704 25.465-.181.013-.362.019-.541.019z"/><path d="m200.904 132.069c-13.332 0-24.518-10.412-25.466-23.704-.294-4.132 2.816-7.72 6.948-8.015 4.127-.304 7.72 2.816 8.015 6.948.391 5.479 5.004 9.771 10.503 9.771 3.673 0 7.023-1.869 8.964-5 2.182-3.521 6.806-4.606 10.326-2.424s4.605 6.805 2.424 10.326c-4.695 7.575-12.812 12.098-21.714 12.098z"/><path d="m317.609 127.862c-13.333 0-24.519-10.412-25.466-23.704-.294-4.132 2.817-7.72 6.949-8.014 4.111-.303 7.72 2.816 8.014 6.948.39 5.478 5.003 9.77 10.503 9.77 3.673 0 7.023-1.869 8.964-5 2.182-3.521 6.806-4.606 10.326-2.424s4.605 6.805 2.424 10.326c-4.695 7.576-12.812 12.098-21.714 12.098z"/></g><path d="m504.5 508.25h-497c-4.143 0-7.5-3.357-7.5-7.5s3.357-7.5 7.5-7.5h497c4.143 0 7.5 3.357 7.5 7.5s-3.357 7.5-7.5 7.5z" fill="#afaab4"/></svg>