<svg xmlns="http://www.w3.org/2000/svg" xmlns:xlink="http://www.w3.org/1999/xlink" id="Capa_1" x="0" y="0" enable-background="new 0 0 512 512" version="1.1" viewBox="0 0 512 512" xml:space="preserve"><path fill="#FFDE91" d="M287.203,228.969H91.533v-30h195.67c15.912,0,28.857-12.945,28.857-28.856	s-12.945-28.856-28.857-28.856s-28.857,12.945-28.857,28.856h-30c0-32.453,26.403-58.856,58.857-58.856s58.857,26.403,58.857,58.856	S319.657,228.969,287.203,228.969z"/><path fill="#EDC472" d="M385.765,417.575c-32.454,0-58.856-26.403-58.856-58.856h30c0,15.911,12.945,28.856,28.856,28.856	s28.857-12.945,28.857-28.856c0-15.912-12.945-28.857-28.857-28.857H152.144v-30h233.621c32.454,0,58.857,26.403,58.857,58.857	C444.622,391.171,418.218,417.575,385.765,417.575z"/><path fill="#FAD17F" d="M443.936,279.416H0v-30h443.936c20.989,0,38.064-17.075,38.064-38.064s-17.076-38.064-38.064-38.064	s-38.064,17.075-38.064,38.064h-30c0-37.531,30.534-68.064,68.064-68.064S512,173.82,512,211.351S481.466,279.416,443.936,279.416z"/><rect width="30" height="30" x="54.46" y="48.974" fill="#FFDE91"/><rect width="30" height="30" x="138.07" y="101.16" fill="#FAD17F"/><rect width="30" height="30" x="233.27" y="26.94" fill="#EDC472"/><rect width="30" height="30" x="461.53" y="26.94" fill="#FFDE91"/><g><rect width="30" height="30" x="360.76" y="65.21" fill="#FAD17F"/><rect width="30" height="30" x="17.789" y="323.29" fill="#FAD17F"/></g><rect width="30" height="30" x="58.24" y="434.08" fill="#FFDE91"/><g><rect width="30" height="30" x="179.07" y="378.33" fill="#EDC472"/><rect width="30" height="30" x="461.53" y="387.79" fill="#EDC472"/></g><rect width="30" height="30" x="256" y="434.08" fill="#FFDE91"/><rect width="30" height="30" x="380.09" y="455.06" fill="#FAD17F"/></svg>